<?xml version="1.0" standalone="no"?>
<!--Created with Sketsa SVG Editor (http://www.kiyut.com)-->
<svg contentScriptType="text/ecmascript" width="40.0px" xmlns:xlink="http://www.w3.org/1999/xlink" baseProfile="full"
    zoomAndPan="magnify" contentStyleType="text/css" height="60.0px" preserveAspectRatio="xMidYMid meet" xmlns="http://www.w3.org/2000/svg"
    version="1.0">
    <line y2="42.683826" fill="#ffffff" x1="4.8101864" x2="4.8101864" stroke="#3399ff" y1="15.319441"/>
    <line y2="42.51589" fill="#ffffff" x1="5.1483803" x2="29.45145" stroke="#3399ff" y1="42.22222"/>
    <line y2="15.287491" fill="#ffffff" x1="29.81491" x2="29.825556" stroke="#3399ff" y1="42.916664"/>
    <line y2="31.30016" fill="#33ccff" x1="29.43991" x2="38.02777" stroke="#3399ff" y1="31.182693"/>
    <path fill="#ffffff" d="M 4.8674192 25.637302 C 7.2770467 23.15151 7.2770467 23.15151 7.2770467 23.15151 C 8.269245 
        23.15151 8.269245 23.15151 8.269245 23.15151 C 8.97796 24.532509 8.97796 24.532509 8.97796 24.532509 C 12.096301 
        23.427713 12.096301 23.427713 12.096301 23.427713 C 13.230242 25.36111 13.230242 25.36111 13.230242 25.36111 C 
        14.931156 25.084902 14.931156 25.084902 14.931156 25.084902 C 16.065102 23.427713 16.065102 23.427713 16.065102 
        23.427713 C 16.773811 23.427713 16.773811 23.427713 16.773811 23.427713 C 18.61647 26.189701 18.61647 26.189701 
        18.61647 26.189701 C 19.466927 26.189701 19.466927 26.189701 19.466927 26.189701 C 20.317383 24.808704 20.317383 
        24.808704 20.317383 24.808704 C 22.727009 27.018301 22.727009 27.018301 22.727009 27.018301 C 27.546265 
        25.637302 27.546265 25.637302 27.546265 25.637302 C 29.814152 28.675493 29.814152 28.675493 29.814152 28.675493"
        stroke="#3399ff"/>
</svg>