<?xml version="1.0" standalone="no"?>
<!--Created with Sketsa SVG Editor (http://www.kiyut.com)-->
<svg contentScriptType="text/ecmascript" width="40.0px" xmlns:xlink="http://www.w3.org/1999/xlink" baseProfile="full"
    zoomAndPan="magnify" contentStyleType="text/css" height="60.0px" preserveAspectRatio="xMidYMid meet" xmlns="http://www.w3.org/2000/svg"
    version="1.0">
    <line y2="42.906048" fill="#ffffff" x1="10.810187" x2="10.810187" y1="15.541662" stroke="#3399ff"/>
    <line y2="42.73811" fill="#ffffff" x1="11.148381" x2="35.45145" y1="42.444443" stroke="#3399ff"/>
    <line y2="15.509712" fill="#ffffff" x1="35.59269" x2="35.603336" y1="43.138885" stroke="#3399ff"/>
    <line y2="31.472637" fill="#33ccff" x1="1.7732449" x2="10.361106" y1="31.472637" stroke="#3399ff"/>
    <path fill="#ffffff" d="M 10.86742 25.970634 C 13.255583 23.484842 13.255583 23.484842 13.255583 23.484842 C 
        14.238943 23.484842 14.238943 23.484842 14.238943 23.484842 C 14.941344 24.86584 14.941344 24.86584 14.941344 
        24.86584 C 18.031908 23.761045 18.031908 23.761045 18.031908 23.761045 C 19.155748 25.694443 19.155748 25.694443 
        19.155748 25.694443 C 20.84151 25.418234 20.84151 25.418234 20.84151 25.418234 C 21.965355 23.761045 21.965355 
        23.761045 21.965355 23.761045 C 22.667751 23.761045 22.667751 23.761045 22.667751 23.761045 C 24.493996 
        26.523033 24.493996 26.523033 24.493996 26.523033 C 25.336876 26.523033 25.336876 26.523033 25.336876 26.523033 
        C 26.179756 25.142036 26.179756 25.142036 26.179756 25.142036 C 28.56792 27.351633 28.56792 27.351633 28.56792 
        27.351633 C 33.344246 25.970634 33.344246 25.970634 33.344246 25.970634 C 35.59193 29.008825 35.59193 29.008825 
        35.59193 29.008825" stroke="#3399ff"/>
</svg>